<?xml version="1.0" encoding="utf-8"?>
<svg viewBox="0 0 500 500" xmlns="http://www.w3.org/2000/svg" xmlns:bx="https://boxy-svg.com">
  <g transform="matrix(1, 0, 0, 1, -3.35869, 104.711197)">
    <rect x="31.629" y="10.199" width="220.505" height="46.725" style="stroke-width: 11px; stroke: rgb(75, 75, 75); fill: rgb(182, 182, 182);"/>
    <rect x="31.629" y="56.924" width="220.505" height="199.028" style="fill: rgb(216, 216, 216); stroke-width: 11px; stroke: rgb(75, 75, 75);"/>
    <line style="stroke-width: 11px; stroke: rgb(75, 75, 75);" x1="31.629" y1="100" x2="252.134" y2="100"/>
    <line style="stroke-width: 11px; stroke: rgb(75, 75, 75);" x1="31.629" y1="139.206" x2="252.134" y2="139.206"/>
    <line style="stroke-width: 11px; stroke: rgb(75, 75, 75);" x1="31.629" y1="178.412" x2="252.134" y2="178.412" bx:origin="0.314 0"/>
    <line style="stroke-width: 11px; stroke: rgb(75, 75, 75);" x1="31.629" y1="217.618" x2="252.134" y2="217.618" bx:origin="0.314 0"/>
    <line style="stroke-width: 11px; stroke: rgb(75, 75, 75);" x1="-24.23" y1="133.081" x2="221.528" y2="133.081" transform="matrix(-0.00193, -0.999998, 0.999998, -0.00193, -34.241355, 231.986655)"/>
    <line style="stroke-width: 11px; stroke: rgb(75, 75, 75);" x1="120.512" y1="201.139" x2="369.128" y2="201.139" transform="matrix(-0.00193, -0.999998, 0.999998, -0.00193, -22.603812, 379.717786)" bx:origin="0.232 0"/>
  </g>
  <g transform="matrix(1, 0, 0, 1, 80.432312, 66.778931)">
    <circle style="fill: rgb(245, 161, 40);" cx="330.719" cy="36.662" r="19.591"/>
    <circle style="fill: rgb(245, 161, 40);" cx="323.184" cy="75.844" r="19.591" transform="matrix(1.568037, 0, 0, 0.610141, -176.045044, 21.930731)"/>
  </g>
  <g transform="matrix(1, 0, 0, 1, 87.296356, 166.142929)">
    <circle style="fill: rgb(245, 161, 40);" cx="330.719" cy="36.662" r="19.591"/>
    <circle style="fill: rgb(245, 161, 40);" cx="323.184" cy="75.844" r="19.591" transform="matrix(1.568037, 0, 0, 0.610141, -176.045044, 21.930731)"/>
  </g>
  <g transform="matrix(1, 0, 0, 1, 87.296356, 263.079926)">
    <circle style="fill: rgb(245, 161, 40);" cx="330.719" cy="36.662" r="19.591"/>
    <circle style="fill: rgb(245, 161, 40);" cx="323.184" cy="75.844" r="19.591" transform="matrix(1.568037, 0, 0, 0.610141, -176.045044, 21.930731)"/>
  </g>
  <g transform="matrix(1, 0, 0, 1, 87.296333, 346.458008)">
    <circle style="fill: rgb(245, 161, 40);" cx="330.719" cy="36.662" r="19.591"/>
    <circle style="fill: rgb(245, 161, 40);" cx="323.184" cy="75.844" r="19.591" transform="matrix(1.568037, 0, 0, 0.610141, -176.045044, 21.930731)"/>
  </g>
  <path d="M 266.783 85.612 H 373.65 L 373.65 76.267 L 392.034 91.491 L 373.65 106.715 L 373.65 97.37 H 266.783 V 85.612 Z" style="fill: rgb(216, 216, 216);" transform="matrix(0.907371, -0.420331, 0.420331, 0.907371, -20.143635, 210.491791)" bx:shape="arrow 266.783 76.267 125.251 30.448 11.758 18.384 0 1@28aedf69"/>
  <path d="M 266.783 85.612 H 373.65 L 373.65 76.267 L 392.034 91.491 L 373.65 106.715 L 373.65 97.37 H 266.783 V 85.612 Z" style="fill: rgb(216, 216, 216);" transform="matrix(0.998745, -0.050081, 0.050081, 0.998745, -9.590041, 143.462173)" bx:shape="arrow 266.783 76.267 125.251 30.448 11.758 18.384 0 1@28aedf69"/>
  <path d="M 266.783 85.612 H 373.65 L 373.65 76.267 L 392.034 91.491 L 373.65 106.715 L 373.65 97.37 H 266.783 V 85.612 Z" style="fill: rgb(216, 216, 216);" transform="matrix(0.936872, 0.349671, -0.349671, 0.936872, 46.678997, 81.563751)" bx:shape="arrow 266.783 76.267 125.251 30.448 11.758 18.384 0 1@28aedf69"/>
  <path d="M 266.783 85.612 H 373.65 L 373.65 76.267 L 392.034 91.491 L 373.65 106.715 L 373.65 97.37 H 266.783 V 85.612 Z" style="fill: rgb(216, 216, 216);" transform="matrix(0.800383, 0.599489, -0.599489, 0.800383, 109.751297, 72.088448)" bx:shape="arrow 266.783 76.267 125.251 30.448 11.758 18.384 0 1@28aedf69"/>
</svg>