<?xml version="1.0" encoding="utf-8"?>
<svg viewBox="0 0 500 500" xmlns="http://www.w3.org/2000/svg">
  <g transform="matrix(1.079052, 0, 0, 1.104919, 200.221375, 114.027298)" style="">
    <rect x="31.629" y="10.199" width="220.505" height="46.725" style="stroke-width: 11px; stroke: rgb(75, 75, 75); fill: rgb(182, 182, 182);"/>
    <rect x="31.629" y="56.924" width="220.505" height="199.028" style="fill: rgb(216, 216, 216); stroke-width: 11px; stroke: rgb(75, 75, 75);"/>
    <line style="stroke-width: 11px; stroke: rgb(75, 75, 75);" x1="31.629" y1="100" x2="252.134" y2="100"/>
    <line style="stroke-width: 11px; stroke: rgb(75, 75, 75);" x1="31.629" y1="139.206" x2="252.134" y2="139.206"/>
    <line style="stroke-width: 11px; stroke: rgb(75, 75, 75);" x1="31.629" y1="178.412" x2="252.134" y2="178.412"/>
    <line style="stroke-width: 11px; stroke: rgb(75, 75, 75);" x1="31.629" y1="217.618" x2="252.134" y2="217.618"/>
    <line style="stroke-width: 11px; stroke: rgb(75, 75, 75);" x1="-24.23" y1="133.081" x2="221.528" y2="133.081" transform="matrix(-0.00193, -0.999998, 0.999998, -0.00193, -34.241355, 231.986655)"/>
    <line style="stroke-width: 11px; stroke: rgb(75, 75, 75);" x1="120.512" y1="201.139" x2="369.128" y2="201.139" transform="matrix(-0.00193, -0.999998, 0.999998, -0.00193, -22.603812, 379.717786)"/>
  </g>
  <g transform="matrix(2.276245, 0, 0, 2.540136, -399.187805, 132.755569)" style="">
    <circle style="fill: rgb(245, 161, 40);" cx="330.719" cy="36.662" r="19.591"/>
    <circle style="fill: rgb(245, 161, 40);" cx="323.184" cy="75.844" r="19.591" transform="matrix(1.568037, 0, 0, 0.610141, -176.045044, 21.930731)"/>
  </g>
  <g transform="matrix(0.865485, 0.500936, -0.500936, 0.865485, 99.887108, 13.822524)">
    <rect x="59.721" y="164.282" width="119.29" height="115.288" style="fill: rgb(216, 216, 216); stroke-width: 5px; stroke: rgb(114, 114, 114);"/>
    <circle style="fill: rgb(245, 161, 40);" cx="124.818" cy="182.373" r="19.02" transform="matrix(0.562214, 0, 0, 0.543296, 69.648483, 101.856125)"/>
    <circle style="fill: rgb(245, 161, 40);" cx="124.818" cy="182.373" r="19.02" transform="matrix(0.562214, 0, 0, 0.543296, 24.132275, 148.197601)"/>
    <rect x="-40.677" y="84.104" width="119.29" height="57.954" style="fill: rgb(216, 216, 216); stroke-width: 5px; stroke: rgb(114, 114, 114);" transform="matrix(1, 0, -0.944754, 1, 235.60788, 17.896004)"/>
    <circle style="fill: rgb(245, 161, 40);" cx="124.818" cy="182.373" r="19.02" transform="matrix(0.562214, 0, -0.277579, 0.273109, 169.94722, 65.100342)"/>
    <circle style="fill: rgb(245, 161, 40);" cx="124.818" cy="182.373" r="19.02" transform="matrix(0.562214, 0, -0.277579, 0.273109, 127.115738, 79.565491)"/>
    <circle style="fill: rgb(245, 161, 40);" cx="124.818" cy="182.373" r="19.02" transform="matrix(0.562214, 0, -0.277579, 0.273109, 82.62336, 94.428017)"/>
    <rect x="265.709" y="111.729" width="79.478" height="78.408" style="fill: rgb(216, 216, 216); stroke-width: 5px; stroke: rgb(114, 114, 114);" transform="matrix(0.680105, -0.733115, 0, 1.470362, 0.000314, 193.460266)"/>
    <circle style="fill: rgb(245, 161, 40);" cx="124.818" cy="182.373" r="19.02" transform="matrix(0.254753, -0.272723, 0, 0.543296, 175.634552, 129.530716)"/>
  </g>
</svg>